<svg xmlns="http://www.w3.org/2000/svg" viewBox="0 0 32 32" fill="none">
  <path d="M16 2L4 8v8c0 7.1 5.1 13.7 12 15 6.9-1.3 12-7.9 12-15V8L16 2z" fill="#F59E0B"/>
  <path d="M16 5L7 9.5v6.5c0 5.7 4 11 9 12.1 5-1.1 9-6.4 9-12.1V9.5L16 5z" fill="#FFFFFF" opacity="0.9"/>
  <path d="M16 5L7 9.5v6.5c0 5.7 4 11 9 12.1 5-1.1 9-6.4 9-12.1V9.5L16 5z" stroke="#D97706" stroke-width="1" fill="none"/>
  <text x="16" y="20" text-anchor="middle" font-family="Arial,sans-serif" font-weight="bold" font-size="12" fill="#D97706">A</text>
</svg>